<mxfile host="app.diagrams.net" agent="Mozilla/5.0 (Windows NT 10.0; Win64; x64) AppleWebKit/537.36 (KHTML, like Gecko) Chrome/128.0.0.0 Safari/537.36" version="28.2.5">
  <diagram name="Page-1" id="BCboU-kBkvMwYAcAmnx1">
    <mxGraphModel dx="1426" dy="785" grid="1" gridSize="10" guides="1" tooltips="1" connect="1" arrows="1" fold="1" page="1" pageScale="1" pageWidth="850" pageHeight="1100" math="0" shadow="0">
      <root>
        <mxCell id="0" />
        <mxCell id="1" parent="0" />
        <mxCell id="bAfVUOo2dbhVuOUbzqS_-14" value="properties" style="swimlane;childLayout=stackLayout;horizontal=1;startSize=50;horizontalStack=0;rounded=1;fontSize=14;fontStyle=0;strokeWidth=2;resizeParent=0;resizeLast=1;shadow=0;dashed=0;align=center;arcSize=4;whiteSpace=wrap;html=1;" vertex="1" parent="1">
          <mxGeometry x="230" y="330" width="340" height="190" as="geometry" />
        </mxCell>
        <mxCell id="bAfVUOo2dbhVuOUbzqS_-15" value="+Attribute1&#xa;+Attribute2&#xa;+Attribute3" style="align=left;strokeColor=none;fillColor=none;spacingLeft=4;spacingRight=4;fontSize=12;verticalAlign=top;resizable=0;rotatable=0;part=1;html=1;whiteSpace=wrap;" vertex="1" parent="bAfVUOo2dbhVuOUbzqS_-14">
          <mxGeometry y="50" width="340" height="140" as="geometry" />
        </mxCell>
        <mxCell id="bAfVUOo2dbhVuOUbzqS_-18" value="&lt;h1 style=&quot;margin-top: 0px;&quot;&gt;Cassandra config&lt;/h1&gt;&lt;p&gt;keyspace=pagibig&lt;/p&gt;&lt;p&gt;replication factor = 2&lt;/p&gt;&lt;p&gt;datacenter = Datacenter1 (x1)&lt;/p&gt;&lt;p&gt;NetworkTopologyStrategy&lt;/p&gt;&lt;p&gt;table=properties&lt;/p&gt;&lt;p&gt;partitions = type (lot, single-detached)&lt;/p&gt;" style="text;html=1;whiteSpace=wrap;overflow=hidden;rounded=0;" vertex="1" parent="1">
          <mxGeometry x="230" y="60" width="430" height="230" as="geometry" />
        </mxCell>
      </root>
    </mxGraphModel>
  </diagram>
</mxfile>
